<?xml version="1.0" standalone="no"?>
<!DOCTYPE svg PUBLIC "-//W3C//DTD SVG 20010904//EN"
 "http://www.w3.org/TR/2001/REC-SVG-20010904/DTD/svg10.dtd">
<svg version="1.0" xmlns="http://www.w3.org/2000/svg"
 width="700.000000pt" height="700.000000pt" viewBox="0 0 700.000000 700.000000"
 preserveAspectRatio="xMidYMid meet">
<metadata>
Created by potrace 1.14, written by Peter Selinger 2001-2017
</metadata>
<g transform="translate(0.000000,700.000000) scale(0.100000,-0.100000)"
fill="#000000" stroke="none">
<path d="M1286 6380 c-555 -66 -1022 -454 -1195 -992 -68 -215 -65 -122 -69
-1798 -3 -1608 -1 -1717 42 -1895 142 -579 620 -1010 1206 -1085 60 -7 880
-10 2790 -8 l2705 3 43 23 c106 57 165 153 166 272 1 63 -4 84 -27 132 -34 69
-100 130 -165 153 -26 9 -94 20 -152 24 -136 11 -215 32 -325 87 -210 103
-362 289 -427 520 l-23 79 0 1640 0 1640 -22 86 c-85 339 -243 597 -488 799
-185 152 -387 248 -635 303 -94 21 -109 21 -1725 23 -896 1 -1661 -2 -1699 -6z
m799 -2770 c104 -440 192 -800 195 -800 3 0 113 360 244 800 l240 800 201 0
201 0 244 -810 c134 -446 247 -807 250 -803 4 5 89 369 191 811 l184 802 259
0 258 0 -5 -22 c-4 -13 -149 -546 -323 -1185 l-317 -1163 -218 0 -218 0 -33
108 c-19 59 -133 423 -253 809 -121 386 -222 700 -225 697 -2 -3 -115 -366
-251 -807 l-246 -802 -213 -3 c-118 -1 -217 1 -221 5 -6 7 -649 2342 -649
2358 0 3 116 5 258 5 l258 0 189 -800z"/>
</g>
</svg>
